<svg width="329" height="202" viewBox="0 0 329 202" fill="none" xmlns="http://www.w3.org/2000/svg">
<path d="M159.264 162.432H74.016L58.176 201.6H0L88.992 0L145.152 0L234.432 201.6H175.104L159.264 162.432ZM142.56 120.384L116.64 55.872L90.72 120.384H142.56Z" fill="white"/>
<path d="M236.023 148.032H210.709L232.742 201.6H175.718L145.152 0H240.055C258.295 0 265.532 0.100006 280.532 7.60001C295.532 15.1 304.032 25.5546 310.532 35.6C317.032 45.6455 320.532 64.1 320.032 76.6C319.532 89.1 315.532 98.6 310.032 108.1C303.31 119.711 297.704 129.956 285.032 136.1L328.532 201.6H272.599L236.023 148.032ZM256.032 75.1C256.032 64.6 249.418 55.1 242.032 49.6C234.646 44.1 210.709 44.928 210.709 44.928H175.718L200.532 103.968H230.709C242.421 103.968 248.532 96.1 250.532 92.6C252.532 89.1 256.032 85.6 256.032 75.1Z" fill="white"/>
</svg>
