<svg width="308" height="202" viewBox="0 0 308 202" fill="none" xmlns="http://www.w3.org/2000/svg">
<path d="M214.589 0L142.272 201.6H86.112L0 0H61.632L116.352 131.328L172.224 0H214.589Z" fill="white"/>
<path d="M209.417 148.032H165.23L142.272 201.6H86.112L169.812 0H213.449C231.689 0 247.529 3.072 260.969 9.216C274.409 15.168 284.777 23.808 292.073 35.136C299.369 46.272 303.017 59.424 303.017 74.592C303.017 89.184 299.561 101.952 292.649 112.896C285.929 123.648 276.233 132.096 263.561 138.24L307.049 201.6H245.993L209.417 148.032ZM245.417 74.592C245.417 65.184 242.441 57.888 236.489 52.704C230.537 47.52 221.705 44.928 209.993 44.928H209.417L184.114 103.968H209.993C221.705 103.968 230.537 101.472 236.489 96.48C242.441 91.296 245.417 84 245.417 74.592Z" fill="white"/>
</svg>
